<?xml version="1.0" encoding="utf-8"?>

<svg xmlns="http://www.w3.org/2000/svg" xmlns:xlink="http://www.w3.org/1999/xlink" 
  height="512" width="512" viewBox="0 0 512 512">

  <image href="https://s0.gifyu.com/images/hello_kitty_Hello_Kitty_Head_ClipArt_in_PNG_File.png" height="512" width="512" />

  <rect width="512" height="512" stroke="red" fill="rgba(255,255,255,0.95)" opacity="0.95" ></rect>

  <text x="2" y="12" font-size="12" text-anchor="start" fill="red">0</text>
  <path d="M256  64 H0 H512" stroke="lightgray" fill="white"></path>
  <text x="2" y="68" font-size="12" text-anchor="start" fill="red">64</text>
  <path d="M256 128 H0 H512" stroke="lightgray" fill="white"></path>
  <text x="2" y="132" font-size="12" text-anchor="start" fill="red">128</text>
  <path d="M256 192 H0 H512" stroke="lightgray" fill="white"></path>
  <text x="2" y="196" font-size="12" text-anchor="start" fill="red">192</text>
  <path d="M256 256 H0 H512" stroke="lightgray" fill="white"></path>
  <text x="2" y="260" font-size="12" text-anchor="start" fill="red">256</text>
  <path d="M256 320 H0 H512" stroke="lightgray" fill="white"></path>
  <text x="2" y="324" font-size="12" text-anchor="start" fill="red">320</text>
  <path d="M256 384 H0 H512" stroke="lightgray" fill="white"></path>
  <text x="2" y="388" font-size="12" text-anchor="start" fill="red">384</text>
  <path d="M256 448 H0 H512" stroke="lightgray" fill="white"></path>
  <text x="2" y="452" font-size="12" text-anchor="start" fill="red">448</text>
  <text x="2" y="510" font-size="12" text-anchor="start" fill="red">512</text>

  <path d="M64  0 V512" stroke="lightgray" fill="white"></path>
  <text x="58" y="12" font-size="12" text-anchor="start" fill="red">64</text>
  <path d="M128  0 V512" stroke="lightgray" fill="white"></path>
  <text x="118" y="12" font-size="12" text-anchor="start" fill="red">128</text>
  <path d="M195  0 V512" stroke="lightgray" fill="white"></path>
  <text x="186" y="12" font-size="12" text-anchor="start" fill="red">192</text>
  <path d="M256  0 V512" stroke="lightgray" fill="white"></path>
  <text x="246" y="12" font-size="12" text-anchor="start" fill="red">256</text>
  <path d="M320  0 V512" stroke="lightgray" fill="white"></path>
  <text x="310" y="12" font-size="12" text-anchor="start" fill="red">320</text>
  <path d="M384  0 V512" stroke="lightgray" fill="white"></path>
  <text x="374" y="12" font-size="12" text-anchor="start" fill="red">384</text>
  <path d="M448  0 V512" stroke="lightgray" fill="white"></path>
  <text x="438" y="12" font-size="12" text-anchor="start" fill="red">448</text>
  <text x="492" y="12" font-size="12" text-anchor="start" fill="red">512</text>

  <path d="M256 256 V270 V242 M256 256 H270 H242" stroke="black" fill="white"></path>
  <text x="254" y="250" font-size="16" text-anchor="middle" fill="red">(256, 256)</text>


   <path d="M173 173 A182 200 0 0 1 334 174 A85 85 0 1 1 380 220 A158 158 0 1 1 130 220 A85 85 0 1 1 175 175" stroke-width="3" stroke="#F00" fill="black" opacity="0."/>

  <circle cx="0" cy="0" r="10" stroke="WHITE" fill="RED">
    <animateMotion dur="3s" 
path="M173 173 A182 200 0 0 1 334 174 A85 85 0 1 1 380 220 A158 158 0 1 1 130 220 A85 85 0 1 1 175 175"            repeatCount="indefinite" rotate="auto"/>
    <animate attributeName="r" to="50" dur="0.5s" repeatCount="indefinite"/>
  </circle>

<svg viewBox="0 0 510 510" xmlns="http://www.w3.org/2000/svg">

  <!-- to hide the path, it is usually wrapped in a <defs> element -->
  <!-- <defs> -->
  <path id="MyPath" fill="none" stroke="red" 
        d="M168 173 A182 200 0 0 1 334 174 A85 85 0 1 1 380 220 A158 158 0 1 1 130 220 A85 85 0 1 1 175 175" />
  <!-- </defs> -->

  <text>
    <textPath style="font-size:30px;fill:black;stroke:#000001 " href="#MyPath" >
天生萬物以養...人 人無一物以報天,殺!殺!殺!殺..........殺!殺! 十步殺一人，千里不留行 事了拂衣去深藏.........身與名。殺!殺!殺!殺!殺!殺!殺!
    </textPath>
  </text>
<circle id="c2" cx="176" cy="286" r="30" stroke="red" fill="red">
    <animate attributeName="r" to="10" dur="2s" repeatCount="indefinite"/>
  </circle>

<circle id="c2" cx="326" cy="286" r="30" stroke="red" fill="red">
    <animate attributeName="r" to="10" dur="2s" repeatCount="indefinite"/>
  </circle>
</svg>

</svg>
    